<svg width="37" height="37" viewBox="0 0 37 37" fill="none" xmlns="http://www.w3.org/2000/svg">
<path fill-rule="evenodd" clip-rule="evenodd" d="M17.6861 3.44186C9.81921 3.44186 3.44186 9.81921 3.44186 17.6861C3.44186 25.5529 9.81921 31.9303 17.6861 31.9303C25.5529 31.9303 31.9303 25.5529 31.9303 17.6861C31.9303 9.81921 25.5529 3.44186 17.6861 3.44186ZM1 17.6861C1 8.4706 8.4706 1 17.6861 1C26.9015 1 34.3721 8.4706 34.3721 17.6861C34.3721 26.9015 26.9015 34.3721 17.6861 34.3721C8.4706 34.3721 1 26.9015 1 17.6861ZM30.66 30.66C31.1368 30.1832 31.9098 30.1832 32.3866 30.66L35.6424 33.9158C36.1192 34.3926 36.1192 35.1656 35.6424 35.6424C35.1656 36.1192 34.3926 36.1192 33.9158 35.6424L30.66 32.3866C30.1832 31.9098 30.1832 31.1368 30.66 30.66Z" fill="black" stroke="black" stroke-width="2"/>
</svg>
