<svg width="39" height="39" viewBox="0 0 39 39" fill="none" xmlns="http://www.w3.org/2000/svg">
<path d="M13.6667 37H3.94444C2.87057 37 2 36.109 2 35.0098V19.9122C2 19.3844 2.20487 18.878 2.56951 18.5049L18.1251 2.58294C18.8844 1.80569 20.1156 1.80569 20.8749 2.58294L36.4305 18.5049C36.7951 18.878 37 19.3844 37 19.9122V35.0098C37 36.109 36.1295 37 35.0556 37H25.3333M13.6667 37H25.3333M13.6667 37V25.0585C13.6667 23.9593 14.5372 23.0683 15.6111 23.0683H23.3889C24.4628 23.0683 25.3333 23.9593 25.3333 25.0585V37" stroke="black" stroke-width="4" stroke-linejoin="round"/>
</svg>
