<svg width="35" height="35" viewBox="0 0 35 35" fill="none" xmlns="http://www.w3.org/2000/svg">
<path d="M34.997 21.0838L35 14.1397L30.4903 13.6449C30.2453 12.8177 29.9214 12.0164 29.522 11.2498L32.4067 7.65878L27.4976 2.7475L23.9586 5.58797C23.1988 5.17501 22.4033 4.8369 21.5808 4.57741L21.0806 0H14.1365L13.6436 4.50987C12.8242 4.75296 12.0298 5.0737 11.2698 5.46834L7.68264 2.57913L2.765 7.48186L5.60082 11.0246C5.1867 11.784 4.8475 12.5792 4.58698 13.401L0.00916016 13.8953L0 20.8394L4.50919 21.338C4.75344 22.1653 5.07664 22.9668 5.47545 23.734L2.58781 27.3224L7.49267 32.2379L11.0342 29.4005C11.7938 29.8143 12.5889 30.153 13.4109 30.4133L13.9073 34.991L20.8514 34.9971L21.3481 30.4876C22.1752 30.243 22.9768 29.9193 23.7436 29.5204L27.3334 32.4065L32.2468 27.4995L29.4079 23.9593C29.8212 23.1997 30.1596 22.4043 30.4196 21.5819L34.997 21.0838ZM17.5014 25.4983C12.5029 25.4983 9.5 22.9957 9.5 17.497C9.5 11.9983 12.5029 9.49829 17.5014 9.49829C22.5 9.49829 25.5 12 25.5 17.497C25.5 22.994 22.5 25.4983 17.5014 25.4983Z" fill="black"/>
</svg>
