<svg width="1440" height="70" viewBox="0 0 1440 70" fill="none" xmlns="http://www.w3.org/2000/svg">
<path d="M0 6C4.43577 9.39611 -2.62741 70.1308 72.5284 -4.47007C147.684 -79.071 217.046 94.6888 294.535 13.0853C368.702 -65.0203 421.607 -8.97622 512.091 9.54879L575.38 21.5651C575.38 21.5651 633.23 33.5814 666.358 31.078C699.486 28.5746 751.403 -17.4876 787.498 -31.0059C823.592 -44.5243 802.331 -21.4932 892.815 3.03999C983.298 27.5732 972.932 31.078 1031.75 27.5732C1090.58 24.0684 1079.72 9.58053 1151.9 -12.9499C1242 -41.0688 1228.54 31.1096 1289.36 22.0975C1342.38 14.2408 1423.85 49.6663 1438.68 22.0975C1453.52 -5.47141 1455 -50 1455 -50" stroke="#26292B" stroke-width="69"/>
</svg>
