<svg width="1440" height="84" viewBox="0 0 1440 84" fill="none" xmlns="http://www.w3.org/2000/svg">
<path d="M-121 42.9683C-116.514 46.3598 -19.5 70.4684 56.5 -4.03162C132.5 -78.5317 202.641 94.9932 281 13.5C356 -64.5 409.5 -8.53167 501 9.9683L565 21.9683C565 21.9683 623.5 33.9684 657 31.4684C690.5 28.9684 743 -17.0316 779.5 -30.5316C816 -44.0317 794.5 -21.0317 886 3.4683C977.5 27.9683 967.018 31.4684 1026.5 27.9683C1085.98 24.4682 1075 10 1148 -12.5C1239.11 -40.5809 1225.5 31.5 1287 22.5C1340.61 14.654 1423 50.0316 1438 22.5C1453 -5.0316 1454.5 -49.5 1454.5 -49.5" stroke="#26292B" stroke-width="69"/>
</svg>
